#!OML:ASF F:\VICON\USERDATA\INSTALL\rory3\rory3.ASF
:FULLY-SPECIFIED
:DEGREES
392
root -0.0593136 19.0202 9.67427 3.67851 -10.603 0.928082
lowerback 3.2111 -0.111538 -2.77218
upperback -1.19919 -0.284345 -0.423876
thorax -3.02368 -0.0926921 1.13473
lowerneck -7.15423 -8.09902 -10.9648
upperneck 7.1278 -10.5654 9.26014
head 4.37593 -5.09831 3.90475
rclavicle -3.38307e-014 -1.37161e-014
rhumerus -32.3857 -8.91422 -77.9459
rradius 17.5295
rwrist 22.4483
rhand -20.516 -0.521533
rfingers 7.12502
rthumb 5.84165 -30.421
lclavicle -3.38307e-014 -1.37161e-014
lhumerus -39.9499 28.8275 62.6342
lradius 11.0395
lwrist -20.6431
lhand -24.167 28.2062
lfingers 7.12502
lthumb 2.31603 58.1734
rfemur -3.6522 19.9648 20.1585
rtibia 12.4249
rfoot -12.1682 -19.83
rtoes 2.48193
lfemur -2.69618 -7.38761 -20.9426
ltibia 11.1496
lfoot -16.7638 27.993
ltoes 10.1076
393
root -0.0574436 19.0206 9.68282 3.68233 -10.6355 0.952164
lowerback 3.10567 -0.120165 -2.783
upperback -1.17147 -0.292321 -0.431528
thorax -2.93532 -0.0979375 1.1329
lowerneck -7.12687 -8.10447 -11.0072
upperneck 7.17567 -10.5753 9.27232
head 4.38995 -5.10444 3.91456
rclavicle -1.42504e-014 1.55052e-014
rhumerus -32.3318 -9.46462 -77.7143
rradius 17.279
rwrist 22.6681
rhand -21.9783 0.955557
rfingers 7.12502
rthumb 4.42968 -28.9781
lclavicle -1.42504e-014 1.55052e-014
lhumerus -39.9511 29.0452 62.5201
lradius 11.0684
lwrist -20.5783
lhand -24.4001 28.0988
lfingers 7.12502
lthumb 2.09095 58.0683
rfemur -3.64726 19.8973 20.1255
rtibia 12.4238
rfoot -12.1616 -19.7892
rtoes 1.97537
lfemur -2.70394 -7.4162 -20.9992
ltibia 11.2414
lfoot -16.7513 28.0731
ltoes 9.52032
394
root -0.0573512 19.021 9.68662 3.77183 -10.6618 0.827445
lowerback 2.99787 -0.120999 -2.68209
upperback -1.17428 -0.28468 -0.401863
thorax -2.87794 -0.0964177 1.10603
lowerneck -7.0161 -8.09601 -10.9638
upperneck 7.1087 -10.5766 9.28253
head 4.34962 -5.10674 3.91599
rclavicle -6.85807e-015 1.98785e-015
rhumerus -32.3856 -9.44065 -77.7673
rradius 17.295
rwrist 21.8425
rhand -24.1664 2.25998
rfingers 7.12502
rthumb 2.31664 -27.7072
lclavicle -6.85807e-015 1.98785e-015
lhumerus -39.7613 28.6672 62.8612
lradius 11.1771
lwrist -19.8907
lhand -24.5316 28.2351
lfingers 7.12502
lthumb 1.96397 58.2058
rfemur -3.72325 19.8626 20.2349
rtibia 12.4225
rfoot -12.0811 -19.7301
rtoes 2.13796
lfemur -2.82105 -7.38154 -20.8619
ltibia 11.3737
lfoot -16.8719 28.0119
ltoes 9.55206
395
root -0.0563401 19.0192 9.68499 3.81065 -10.733 0.727171
lowerback 3.01722 -0.11162 -2.59909
upperback -1.18264 -0.269237 -0.392922
thorax -2.89826 -0.0898445 1.06796
lowerneck -7.06515 -8.0938 -10.9148
upperneck 7.19576 -10.5836 9.31817
head 4.38436 -5.10571 3.91583
rclavicle 1.82136e-014 1.59028e-015
rhumerus -32.4415 -9.35748 -77.8962
rradius 17.3712
rwrist 20.721
rhand -24.8327 1.30048
rfingers 7.12502
rthumb 1.67313 -28.6727
lclavicle 1.82136e-014 1.59028e-015
lhumerus -39.6012 28.3443 63.113
lradius 11.2806
lwrist -19.2763
lhand -24.5372 28.5414
lfingers 7.12502
lthumb 1.95849 58.5121
rfemur -3.76105 19.8745 20.3301
rtibia 12.4202
rfoot -12.0324 -19.6762
rtoes 2.38215
lfemur -2.9344 -7.38507 -20.749
ltibia 11.5402
lfoot -17.0513 28.0265
ltoes 9.83098
396
root -0.0543469 19.0176 9.68519 3.78962 -10.7971 0.656492
lowerback 3.03798 -0.118704 -2.55237
upperback -1.13307 -0.276051 -0.378484
thorax -2.85865 -0.0948456 1.057
lowerneck -7.17351 -8.08926 -10.8251
upperneck 7.257 -10.5741 9.25959
head 4.41189 -5.09813 3.87987
rclavicle -6.42323e-015 9.93923e-015
rhumerus -32.3985 -9.16856 -78.0504
rradius 17.2819
rwrist 19.7096
rhand -24.4742 0.0390643
rfingers 7.12502
rthumb 2.01937 -29.9311
lclavicle -6.42323e-015 9.93923e-015
lhumerus -39.4637 28.3104 63.2426
lradius 11.3974
lwrist -18.9771
lhand -24.4307 28.8326
lfingers 7.12502
lthumb 2.0614 58.8024
rfemur -3.75905 19.8278 20.403
rtibia 12.4518
rfoot -12.0296 -19.6019
rtoes 2.30884
lfemur -2.96136 -7.38777 -20.6829
ltibia 11.675
lfoot -17.153 28.063
ltoes 9.90445
397
root -0.0525141 19.0163 9.68896 3.70535 -10.855 0.688784
lowerback 3.04927 -0.115983 -2.6118
upperback -1.06649 -0.273989 -0.377069
thorax -2.79625 -0.0940552 1.09158
lowerneck -7.30513 -8.09185 -10.7352
upperneck 7.35552 -10.5727 9.18373
head 4.4545 -5.09457 3.83644
rclavicle 1.84746e-014 -2.98177e-015
rhumerus -32.3972 -8.91347 -78.1564
rradius 17.1843
rwrist 19.2202
rhand -24.1553 -0.308192
rfingers 7.12502
rthumb 2.32734 -30.2752
lclavicle 1.84746e-014 -2.98177e-015
lhumerus -39.3752 28.2648 63.4067
lradius 11.4934
lwrist -18.7393
lhand -24.4653 28.7334
lfingers 7.12502
lthumb 2.02794 58.7035
rfemur -3.72772 19.7911 20.3833
rtibia 12.5688
rfoot -12.0569 -19.4925
rtoes 2.00544
lfemur -2.85473 -7.41526 -20.7559
ltibia 11.693
lfoot -17.1585 28.1677
ltoes 9.597
398
root -0.0517753 19.0143 9.69334 3.57219 -10.9179 0.806697
lowerback 3.09817 -0.0945778 -2.75068
upperback -1.01038 -0.252759 -0.411702
thorax -2.76655 -0.0822397 1.13275
lowerneck -7.40586 -8.12717 -10.6512
upperneck 7.45019 -10.6178 9.10526
head 4.49564 -5.11497 3.79008
rclavicle -4.75841e-015 1.35174e-014
rhumerus -32.4419 -8.97681 -78.0997
rradius 17.1551
rwrist 19.2462
rhand -23.9944 -0.397961
rfingers 7.12502
rthumb 2.48278 -30.3633
lclavicle -4.75841e-015 1.35174e-014
lhumerus -39.222 27.7986 63.8138
lradius 11.5917
lwrist -17.9943
lhand -24.7413 28.5087
lfingers 7.12502
lthumb 1.76139 58.4812
rfemur -3.64879 19.8267 20.2958
rtibia 12.6794
rfoot -12.1108 -19.4745
rtoes 2.20898
lfemur -2.68248 -7.35601 -20.921
ltibia 11.664
lfoot -17.2878 28.1555
ltoes 9.90898
399
root -0.0506294 19.0134 9.69474 3.4393 -10.9969 0.929333
lowerback 3.17217 -0.0680071 -2.90997
upperback -0.969014 -0.22674 -0.444294
thorax -2.7664 -0.0672223 1.18728
lowerneck -7.43175 -8.13068 -10.6915
upperneck 7.49294 -10.6324 9.23445
head 4.52398 -5.11634 3.83331
rclavicle -1.47722e-014 6.75868e-015
rhumerus -32.501 -8.90226 -78.133
rradius 17.2345
rwrist 18.9682
rhand -23.9064 -0.305842
rfingers 7.12502
rthumb 2.56773 -30.2701
lclavicle -1.47722e-014 6.75868e-015
lhumerus -39.0984 27.4698 64.1191
lradius 11.6384
lwrist -17.677
lhand -25.0344 28.1932
lfingers 7.12502
lthumb 1.47837 58.1678
rfemur -3.60626 19.8494 20.1958
rtibia 12.8102
rfoot -12.1094 -19.4464
rtoes 2.07979
lfemur -2.51097 -7.15275 -21.0783
ltibia 11.5853
lfoot -17.2068 28.0741
ltoes 9.57944
400
root -0.0483955 19.013 9.69294 3.31081 -11.047 0.941891
lowerback 3.33174 -0.0573851 -2.96095
upperback -0.932311 -0.219912 -0.445534
thorax -2.8186 -0.0625985 1.21464
lowerneck -7.54183 -8.1288 -10.7432
upperneck 7.622 -10.64 9.39837
head 4.59458 -5.11014 3.8855
rclavicle 2.07854e-014 1.0138e-014
rhumerus -32.5424 -8.75604 -78.2011
rradius 17.3892
rwrist 18.8903
rhand -24.2989 0.183954
rfingers 7.12502
rthumb 2.18868 -29.7846
lclavicle 2.07854e-014 1.0138e-014
lhumerus -38.9336 26.9623 64.5615
lradius 11.7527
lwrist -17.2275
lhand -25.1101 28.0436
lfingers 7.12502
lthumb 1.40526 58.0188
rfemur -3.55893 19.9145 20.2205
rtibia 12.929
rfoot -12.1022 -19.5016
rtoes 1.88943
lfemur -2.34736 -7.05497 -21.1161
ltibia 11.5111
lfoot -17.1459 28.0773
ltoes 8.62809
401
root -0.0465903 19.0128 9.69405 3.25854 -11.0515 0.902946
lowerback 3.40456 -0.0553865 -2.92494
upperback -0.908644 -0.21798 -0.451252
thorax -2.83537 -0.0623067 1.18866
lowerneck -7.60921 -8.13115 -10.6914
upperneck 7.67412 -10.6484 9.41805
head 4.6209 -5.10972 3.87963
rclavicle 8.17502e-015 1.17283e-014
rhumerus -32.5708 -8.75231 -78.2275
rradius 17.5102
rwrist 19.2416
rhand -25.0881 1.28627
rfingers 7.12502
rthumb 1.42652 -28.6887
lclavicle 8.17502e-015 1.17283e-014
lhumerus -38.7196 26.4809 64.9612
lradius 11.7884
lwrist -16.8076
lhand -24.9367 28.1494
lfingers 7.12502
lthumb 1.57268 58.1234
rfemur -3.53742 19.9301 20.2828
rtibia 12.9933
rfoot -12.1453 -19.5555
rtoes 1.665
lfemur -2.28676 -7.01712 -21.0858
ltibia 11.5162
lfoot -17.1463 28.0751
ltoes 8.21257
402
root -0.0449735 19.0126 9.69547 3.19957 -11.0399 0.943194
lowerback 3.42311 -0.0619658 -2.96653
upperback -0.854387 -0.228703 -0.470766
thorax -2.78939 -0.0682703 1.19252
lowerneck -7.60563 -8.15631 -10.713
upperneck 7.57529 -10.6761 9.44165
head 4.59545 -5.12326 3.88901
rclavicle 1.24365e-014 -1.78906e-015
rhumerus -32.5125 -8.56834 -78.3416
rradius 17.5235
rwrist 19.1209
rhand -24.8162 1.01079
rfingers 7.12502
rthumb 1.6891 -28.9623
lclavicle 1.24365e-014 -1.78906e-015
lhumerus -38.4714 26.1067 65.3356
lradius 11.7908
lwrist -16.535
lhand -24.8289 28.1831
lfingers 7.12502
lthumb 1.6768 58.1562
rfemur -3.46926 19.9432 20.2558
rtibia 12.9879
rfoot -12.2269 -19.5841
rtoes 1.56062
lfemur -2.29325 -7.02622 -21.1441
ltibia 11.6213
lfoot -17.1433 28.0845
ltoes 8.05432
